{"asset":{"version":"2.0","generator":"Blockbench 3.9.3 glTF exporter"},"scenes":[{"nodes":[12],"name":"blockbench_export"}],"scene":0,"nodes":[{"name":"3fa73543-9e25-d95c-6e87-302f2be02166","mesh":0},{"name":"2d3a24b5-ea57-e50f-346a-9413c0539ccd","mesh":1},{"name":"Legs","children":[0,1]},{"name":"9b6c5594-3cbf-47c0-bc0a-358ef91bbe2c","mesh":2},{"name":"b26063fc-f43e-b1f6-6f70-5500bcc9d2a2","mesh":3},{"name":"04a43d51-e749-04b7-be74-b246f57f2281","mesh":4},{"name":"Face","children":[3,4,5]},{"name":"cc3eb372-91fc-9da0-78a3-6f8f9a1f2dee","mesh":5},{"name":"Head","children":[6,7]},{"name":"05df4ede-f837-c188-2e33-ef64abd97eee","mesh":6},{"name":"5496d620-28b4-4bca-3728-1c5a1bee6332","mesh":7},{"name":"Body","children":[9,10]},{"name":"CharGreen","children":[2,8,11]}],"bufferViews":[{"buffer":0,"byteOffset":0,"byteLength":432,"target":34962,"byteStride":12},{"buffer":0,"byteOffset":432,"byteLength":432,"target":34962,"byteStride":12},{"buffer":0,"byteOffset":864,"byteLength":288,"target":34962,"byteStride":8},{"buffer":0,"byteOffset":1152,"byteLength":432,"target":34962,"byteStride":12},{"buffer":0,"byteOffset":1584,"byteLength":432,"target":34962,"byteStride":12},{"buffer":0,"byteOffset":2016,"byteLength":288,"target":34962,"byteStride":8},{"buffer":0,"byteOffset":2304,"byteLength":432,"target":34962,"byteStride":12},{"buffer":0,"byteOffset":2736,"byteLength":432,"target":34962,"byteStride":12},{"buffer":0,"byteOffset":3168,"byteLength":288,"target":34962,"byteStride":8},{"buffer":0,"byteOffset":3456,"byteLength":12,"target":34963},{"buffer":0,"byteOffset":3468,"byteLength":12,"target":34963},{"buffer":0,"byteOffset":3480,"byteLength":12,"target":34963},{"buffer":0,"byteOffset":3492,"byteLength":12,"target":34963},{"buffer":0,"byteOffset":3504,"byteLength":12,"target":34963},{"buffer":0,"byteOffset":3516,"byteLength":12,"target":34963},{"buffer":0,"byteOffset":3528,"byteLength":432,"target":34962,"byteStride":12},{"buffer":0,"byteOffset":3960,"byteLength":432,"target":34962,"byteStride":12},{"buffer":0,"byteOffset":4392,"byteLength":288,"target":34962,"byteStride":8},{"buffer":0,"byteOffset":4680,"byteLength":432,"target":34962,"byteStride":12},{"buffer":0,"byteOffset":5112,"byteLength":432,"target":34962,"byteStride":12},{"buffer":0,"byteOffset":5544,"byteLength":288,"target":34962,"byteStride":8},{"buffer":0,"byteOffset":5832,"byteLength":432,"target":34962,"byteStride":12},{"buffer":0,"byteOffset":6264,"byteLength":432,"target":34962,"byteStride":12},{"buffer":0,"byteOffset":6696,"byteLength":288,"target":34962,"byteStride":8},{"buffer":0,"byteOffset":6984,"byteLength":432,"target":34962,"byteStride":12},{"buffer":0,"byteOffset":7416,"byteLength":432,"target":34962,"byteStride":12},{"buffer":0,"byteOffset":7848,"byteLength":288,"target":34962,"byteStride":8},{"buffer":0,"byteOffset":8136,"byteLength":432,"target":34962,"byteStride":12},{"buffer":0,"byteOffset":8568,"byteLength":432,"target":34962,"byteStride":12},{"buffer":0,"byteOffset":9000,"byteLength":288,"target":34962,"byteStride":8}],"buffers":[{"byteLength":9288,"uri":"data:application/octet-stream;base64,"}],"accessors":[{"bufferView":0,"componentType":5126,"count":36,"max":[-0.125,0.4375,0.125],"min":[-0.3125,0,-0.0625],"type":"VEC3"},{"bufferView":1,"componentType":5126,"count":36,"max":[1,1,1],"min":[-1,-1,-1],"type":"VEC3"},{"bufferView":2,"componentType":5126,"count":36,"max":[0.1875,1],"min":[0,0.5625],"type":"VEC2"},{"bufferView":3,"componentType":5126,"count":36,"max":[0.3125,0.4375,0.125],"min":[0.125,0,-0.0625],"type":"VEC3"},{"bufferView":4,"componentType":5126,"count":36,"max":[1,1,1],"min":[-1,-1,-1],"type":"VEC3"},{"bufferView":5,"componentType":5126,"count":36,"max":[0.1875,1],"min":[0,0.5625],"type":"VEC2"},{"bufferView":6,"componentType":5126,"count":36,"max":[0.25,1.9375,0.1875],"min":[-0.25,1.5625,0.125],"type":"VEC3"},{"bufferView":7,"componentType":5126,"count":36,"max":[1,1,1],"min":[-1,-1,-1],"type":"VEC3"},{"bufferView":8,"componentType":5126,"count":36,"max":[0.5,1],"min":[0,0.625],"type":"VEC2"},{"bufferView":9,"componentType":5123,"count":6,"max":[5],"min":[0],"type":"SCALAR"},{"bufferView":10,"componentType":5123,"count":6,"max":[11],"min":[6],"type":"SCALAR"},{"bufferView":11,"componentType":5123,"count":6,"max":[17],"min":[12],"type":"SCALAR"},{"bufferView":12,"componentType":5123,"count":6,"max":[23],"min":[18],"type":"SCALAR"},{"bufferView":13,"componentType":5123,"count":6,"max":[29],"min":[24],"type":"SCALAR"},{"bufferView":14,"componentType":5123,"count":6,"max":[35],"min":[30],"type":"SCALAR"},{"bufferView":15,"componentType":5126,"count":36,"max":[0.1875,1.6875,0.1875],"min":[0.125,1.625,0.125],"type":"VEC3"},{"bufferView":16,"componentType":5126,"count":36,"max":[1,1,1],"min":[-1,-1,-1],"type":"VEC3"},{"bufferView":17,"componentType":5126,"count":36,"max":[0.0625,1],"min":[0,0.9375],"type":"VEC2"},{"bufferView":18,"componentType":5126,"count":36,"max":[0.25,1.625,0.1875],"min":[0.1875,1.5625,0.125],"type":"VEC3"},{"bufferView":19,"componentType":5126,"count":36,"max":[1,1,1],"min":[-1,-1,-1],"type":"VEC3"},{"bufferView":20,"componentType":5126,"count":36,"max":[0.0625,1],"min":[0,0.9375],"type":"VEC2"},{"bufferView":21,"componentType":5126,"count":36,"max":[0.3125,2.0625,0.1875],"min":[-0.3125,1.4375,-0.125],"type":"VEC3"},{"bufferView":22,"componentType":5126,"count":36,"max":[1,1,1],"min":[-1,-1,-1],"type":"VEC3"},{"bufferView":23,"componentType":5126,"count":36,"max":[1,1],"min":[0,0],"type":"VEC2"},{"bufferView":24,"componentType":5126,"count":36,"max":[0.3125,1.4375,0.1875],"min":[-0.3125,0.4375,-0.125],"type":"VEC3"},{"bufferView":25,"componentType":5126,"count":36,"max":[1,1,1],"min":[-1,-1,-1],"type":"VEC3"},{"bufferView":26,"componentType":5126,"count":36,"max":[1,1],"min":[0,0],"type":"VEC2"},{"bufferView":27,"componentType":5126,"count":36,"max":[0.25,1.3125,-0.125],"min":[-0.1875,0.6875,-0.25],"type":"VEC3"},{"bufferView":28,"componentType":5126,"count":36,"max":[1,1,1],"min":[-1,-1,-1],"type":"VEC3"},{"bufferView":29,"componentType":5126,"count":36,"max":[0.4375,1],"min":[0,0.375],"type":"VEC2"}],"materials":[{"pbrMetallicRoughness":{"metallicFactor":0,"roughnessFactor":1,"baseColorTexture":{"index":0}},"alphaMode":"MASK","alphaCutoff":0.05,"doubleSided":true},{"pbrMetallicRoughness":{"metallicFactor":0,"roughnessFactor":1,"baseColorTexture":{"index":1}},"alphaMode":"MASK","alphaCutoff":0.05,"doubleSided":true},{"pbrMetallicRoughness":{"baseColorFactor":[0.4823529411764706,1,0.6392156862745098,1],"metallicFactor":0,"roughnessFactor":1,"baseColorTexture":{"index":2}},"doubleSided":true},{"pbrMetallicRoughness":{"metallicFactor":0,"roughnessFactor":1,"baseColorTexture":{"index":3}},"alphaMode":"MASK","alphaCutoff":0.05,"doubleSided":true}],"textures":[{"sampler":0,"source":0,"name":"Everthing But Face & Glare"},{"sampler":1,"source":1,"name":"Face"},{"sampler":2,"source":2},{"sampler":3,"source":3,"name":"Glare"}],"samplers":[{"magFilter":9728,"minFilter":9728,"wrapS":33071,"wrapT":33071},{"magFilter":9728,"minFilter":9728,"wrapS":33071,"wrapT":33071},{"magFilter":9728,"minFilter":9728,"wrapS":10497,"wrapT":10497},{"magFilter":9728,"minFilter":9728,"wrapS":33071,"wrapT":33071}],"images":[{"mimeType":"image/png","uri":"data:image/png;base64,"},{"mimeType":"image/png","uri":"data:image/png;base64,"},{"mimeType":"image/png","uri":"data:image/png;base64,"},{"mimeType":"image/png","uri":"data:image/png;base64,"}],"meshes":[{"primitives":[{"mode":4,"attributes":{"POSITION":0,"NORMAL":1,"TEXCOORD_0":2},"material":0}]},{"primitives":[{"mode":4,"attributes":{"POSITION":3,"NORMAL":4,"TEXCOORD_0":5},"material":0}]},{"primitives":[{"mode":4,"attributes":{"POSITION":6,"NORMAL":7,"TEXCOORD_0":8},"indices":9,"material":1},{"mode":4,"attributes":{"POSITION":6,"NORMAL":7,"TEXCOORD_0":8},"indices":10,"material":1},{"mode":4,"attributes":{"POSITION":6,"NORMAL":7,"TEXCOORD_0":8},"indices":11,"material":2},{"mode":4,"attributes":{"POSITION":6,"NORMAL":7,"TEXCOORD_0":8},"indices":12,"material":1},{"mode":4,"attributes":{"POSITION":6,"NORMAL":7,"TEXCOORD_0":8},"indices":13,"material":1},{"mode":4,"attributes":{"POSITION":6,"NORMAL":7,"TEXCOORD_0":8},"indices":14,"material":1}]},{"primitives":[{"mode":4,"attributes":{"POSITION":15,"NORMAL":16,"TEXCOORD_0":17},"material":3}]},{"primitives":[{"mode":4,"attributes":{"POSITION":18,"NORMAL":19,"TEXCOORD_0":20},"material":3}]},{"primitives":[{"mode":4,"attributes":{"POSITION":21,"NORMAL":22,"TEXCOORD_0":23},"material":0}]},{"primitives":[{"mode":4,"attributes":{"POSITION":24,"NORMAL":25,"TEXCOORD_0":26},"material":0}]},{"primitives":[{"mode":4,"attributes":{"POSITION":27,"NORMAL":28,"TEXCOORD_0":29},"material":0}]}]}